<?xml version="1.0" encoding="UTF-8"?><svg id="Calque_1" xmlns="http://www.w3.org/2000/svg" viewBox="0 0 841.89 212.6"><defs><style>.cls-1{fill:#257481;}.cls-2{fill:#d63b4b;}</style></defs><path class="cls-2" d="M259.51,59.32c6.29-9.73,5.47-22.8-4.82-29.55-1.91-1.26-6.89-4.26-7.79-.47l-.02,16.68-6.52,5.42-7.02-5.41-.02-16.69c-.88-2.34-2.24-2.18-4.23-1.39-13.43,5.29-15.13,21.63-7.14,32.44,5.73,7.1,11.15,13.21,16.71,19.78.92,1.09,2.65,1.11,3.59.03,3.74-4.33,12.38-14.41,17.26-20.83Z"/><polygon class="cls-1" points="246.59 109.97 291.46 33.26 313.85 70.39 266.09 149.52 246.59 109.97"/><polyline class="cls-1" points="234.67 118.18 250.25 150.06 203.36 150.25 170.32 82.33 193.81 34.57 234.67 118.18"/><polygon class="cls-1" points="108.87 82.49 132.09 34.76 188.64 153.14 166.47 197.1 108.87 82.49"/><path class="cls-1" d="M121.27,138.33c.15.3.15.65,0,.95l-5.24,10.94-43.68-.17,27.7-53.93,21.22,42.21Z"/><path class="cls-1" d="M374.19,150.05v-36.77l-15.85,24.06h-.32l-15.69-23.82v36.53h-12.15v-56.33h13.36l14.81,23.82,14.81-23.82h13.36v56.33h-12.31Z"/><path class="cls-1" d="M408.07,150.05v-56.33h42.49v11.02h-30.17v11.43h26.55v11.02h-26.55v11.83h30.58v11.02h-42.89Z"/><path class="cls-1" d="M496.42,151.02c-16.58,0-28.89-12.79-28.89-28.97v-.16c0-16.01,12.07-29.13,29.37-29.13,10.62,0,16.98,3.54,22.21,8.69l-7.89,9.09c-4.35-3.94-8.77-6.36-14.4-6.36-9.5,0-16.34,7.89-16.34,17.54v.16c0,9.66,6.68,17.7,16.34,17.7,6.44,0,10.38-2.58,14.81-6.6l7.89,7.97c-5.79,6.2-12.23,10.06-23.09,10.06Z"/><path class="cls-1" d="M579.38,150.05l-5.15-12.63h-23.82l-5.15,12.63h-12.63l24.14-56.73h11.43l24.14,56.73h-12.95ZM562.32,108.21l-7.48,18.26h14.97l-7.48-18.26Z"/><path class="cls-2" d="M629.91,150.45h-10.94l-22.77-56.73h13.68l14.73,39.67,14.73-39.67h13.36l-22.77,56.73Z"/><path class="cls-2" d="M703.3,150.05l-5.15-12.63h-23.82l-5.15,12.63h-12.63l24.14-56.73h11.43l24.14,56.73h-12.95ZM686.24,108.21l-7.48,18.26h14.97l-7.48-18.26Z"/><path class="cls-2" d="M732.99,150.05v-56.33h12.39v45.06h28.08v11.27h-40.47Z"/><polygon class="cls-2" points="447.61 88.4 408.22 88.4 411.7 77.37 451.09 77.37 447.61 88.4"/><path class="cls-1" d="M410.84,166.01h7.2v1.23h-5.93v3.95h5.93v1.23h-5.93v4.97h5.93v1.23h-7.2v-12.6Z"/><path class="cls-1" d="M423.78,178.62v-12.6h.26l8.35,9.65v-9.65h1.26v12.6h-.28l-8.34-9.53v9.53h-1.26Z"/><path class="cls-1" d="M439,167.24v-1.23h6.92v1.23h-2.81v11.37h-1.26v-11.37h-2.84Z"/><path class="cls-1" d="M451.3,166.01h2.9c1.32,0,2.32.09,2.93.32,1.3.49,2.07,1.61,2.07,3.04,0,.63-.09,1-.37,1.56-.65,1.32-1.91,1.82-4,1.82l4.55,5.86h-1.56l-4.53-5.86h-.72v5.86h-1.26v-12.6ZM452.57,167.24v4.28c.7,0,1.42.02,2.09.02,1.09,0,1.93-.1,2.47-.54.46-.37.75-.98.75-1.63,0-1.23-.84-2.12-2.74-2.12h-2.58Z"/><path class="cls-1" d="M465.42,166.01h7.2v1.23h-5.93v3.95h5.93v1.23h-5.93v4.97h5.93v1.23h-7.2v-12.6Z"/><path class="cls-1" d="M477.07,167.24v-1.23h6.91v1.23h-2.81v11.37h-1.26v-11.37h-2.84Z"/><path class="cls-1" d="M489.13,166.01h1.26v12.6h-1.26v-12.6Z"/><path class="cls-1" d="M496.8,166.01h7.2v1.23h-5.93v3.95h5.93v1.23h-5.93v4.97h5.93v1.23h-7.2v-12.6Z"/><path class="cls-1" d="M509.74,178.62v-12.6h.26l8.35,9.65v-9.65h1.26v12.6h-.28l-8.34-9.53v9.53h-1.26Z"/><path class="cls-1" d="M537.83,178.91c-2.09,0-3.21-1.35-3.21-2.91,0-1.67,1.21-2.84,3.02-4.28-1-1.19-1.61-2-1.61-2.97,0-1.33,1.25-2.26,2.79-2.26,1.63,0,2.76.98,2.76,2.28,0,1.07-.81,2.02-2.18,3.18,2.11,2.25,3.19,3.28,3.23,3.32.56-.47,1.11-.93,1.53-1.32l.84.91c-.44.39-.93.82-1.47,1.26.83.88,1.67,1.65,2.39,2.49h-1.76c-.86-.93-1.42-1.46-1.63-1.69-1.47,1.11-2.74,1.98-4.69,1.98ZM535.84,175.93c0,.89.84,1.83,2.11,1.83,1.16,0,2.32-.7,3.72-1.7-.9-.91-2-1.98-3.21-3.37-1.6,1.21-2.61,2.14-2.61,3.25ZM540.34,168.75c0-.61-.67-1.11-1.56-1.11-.75,0-1.53.42-1.53,1.12,0,.49.47,1.23,1.37,2.23,1.12-.88,1.72-1.67,1.72-2.25Z"/><path class="cls-1" d="M559.82,166.01h2.9c1.32,0,2.32.09,2.93.32,1.3.49,2.07,1.61,2.07,3.04,0,.63-.09,1-.37,1.56-.65,1.32-1.91,1.82-4,1.82l4.55,5.86h-1.56l-4.53-5.86h-.72v5.86h-1.26v-12.6ZM561.08,167.24v4.28c.7,0,1.42.02,2.09.02,1.09,0,1.93-.1,2.47-.54.46-.37.75-.98.75-1.63,0-1.23-.84-2.12-2.74-2.12h-2.58Z"/><path class="cls-1" d="M573.93,166.01h7.2v1.23h-5.93v3.95h5.93v1.23h-5.93v4.97h5.93v1.23h-7.2v-12.6ZM578.22,162.27h1.84l-2.54,2.65h-1.18l1.88-2.65Z"/><path class="cls-1" d="M586.84,166.01h2.91c1.32,0,2.3.09,2.91.32,1.28.49,2.07,1.61,2.07,3.04,0,1.19-.56,2.19-1.46,2.76-.9.56-2.19.63-3.93.63h-1.25v5.86h-1.26v-12.6ZM588.1,167.24v4.28c.72.02,1.44,0,2.09,0,1.09,0,1.93-.07,2.49-.53.44-.35.74-1,.74-1.63s-.32-1.28-.79-1.65c-.56-.42-1.32-.47-2.3-.47h-2.23Z"/><path class="cls-1" d="M604.6,166.01l5.88,12.6h-1.35l-1.98-4.14h-5.44l-1.97,4.14h-1.4l5.97-12.6h.3ZM604.44,168.68l-2.18,4.56h4.32l-2.14-4.56Z"/><path class="cls-1" d="M616.01,166.01h2.9c1.32,0,2.32.09,2.93.32,1.3.49,2.07,1.61,2.07,3.04,0,.63-.09,1-.37,1.56-.65,1.32-1.91,1.82-4,1.82l4.55,5.86h-1.56l-4.53-5.86h-.72v5.86h-1.26v-12.6ZM617.27,167.24v4.28c.7,0,1.42.02,2.09.02,1.09,0,1.93-.1,2.47-.54.46-.37.75-.98.75-1.63,0-1.23-.84-2.12-2.74-2.12h-2.58Z"/><path class="cls-1" d="M635.27,166.01l5.88,12.6h-1.35l-1.98-4.14h-5.44l-1.97,4.14h-1.4l5.97-12.6h.3ZM635.11,168.68l-2.18,4.56h4.32l-2.14-4.56Z"/><path class="cls-1" d="M643.94,167.24v-1.23h6.91v1.23h-2.81v11.37h-1.26v-11.37h-2.84Z"/><path class="cls-1" d="M656,166.01h1.26v12.6h-1.26v-12.6Z"/><path class="cls-1" d="M676.39,172.31c0,3.7-2.9,6.62-6.63,6.62s-6.65-3.04-6.65-6.56c0-3.75,2.91-6.67,6.55-6.67,3.83,0,6.74,2.86,6.74,6.62ZM664.42,172.37c0,3.11,2.46,5.34,5.3,5.34s5.35-2.25,5.35-5.41-2.56-5.37-5.35-5.37-5.3,2.21-5.3,5.44Z"/><path class="cls-1" d="M682.45,178.62v-12.6h.26l8.35,9.65v-9.65h1.26v12.6h-.28l-8.34-9.53v9.53h-1.26Z"/></svg>